<?xml version="1.0" standalone="no"?>
<!DOCTYPE svg PUBLIC "-//W3C//DTD SVG 20010904//EN"
 "http://www.w3.org/TR/2001/REC-SVG-20010904/DTD/svg10.dtd">
<svg version="1.0" xmlns="http://www.w3.org/2000/svg"
 width="514.000000pt" height="514.000000pt" viewBox="0 0 514.000000 514.000000"
 preserveAspectRatio="xMidYMid meet">
<metadata>
Created by potrace 1.11, written by Peter Selinger 2001-2013
</metadata>
<g transform="translate(0.000000,514.000000) scale(0.100000,-0.100000)"
fill="#000000" stroke="none">
<path d="M388 2883 c45 -2 119 -2 165 0 45 1 8 3 -83 3 -91 0 -128 -2 -82 -3z"/>
<path d="M653 2883 c9 -2 25 -2 35 0 9 3 1 5 -18 5 -19 0 -27 -2 -17 -5z"/>
<path d="M845 2880 c3 -5 17 -10 31 -10 13 0 24 5 24 10 0 6 -14 10 -31 10
-17 0 -28 -4 -24 -10z"/>
<path d="M910 2880 c0 -6 27 -10 62 -10 74 0 73 5 -4 14 -37 4 -58 2 -58 -4z"/>
<path d="M1948 2873 c29 -2 74 -2 100 0 26 2 2 3 -53 3 -55 0 -76 -1 -47 -3z"/>
<path d="M2105 2870 c3 -5 31 -10 61 -10 30 0 54 5 54 10 0 6 -27 10 -61 10
-37 0 -58 -4 -54 -10z"/>
<path d="M2278 2863 c29 -2 74 -2 100 0 26 2 2 3 -53 3 -55 0 -76 -1 -47 -3z"/>
<path d="M4148 2853 c72 -2 192 -2 265 0 72 1 13 3 -133 3 -146 0 -205 -2
-132 -3z"/>
<path d="M4563 2853 c9 -2 25 -2 35 0 9 3 1 5 -18 5 -19 0 -27 -2 -17 -5z"/>
<path d="M673 2795 c0 -33 2 -45 4 -27 2 18 2 45 0 60 -2 15 -4 0 -4 -33z"/>
<path d="M730 2800 c-11 -22 -18 -40 -15 -40 2 0 14 18 25 40 11 22 18 40 15
40 -2 0 -14 -18 -25 -40z"/>
<path d="M930 2799 c-12 -23 -20 -43 -18 -45 3 -2 14 17 26 41 27 56 20 60 -8
4z"/>
<path d="M2370 2826 c0 -10 40 -86 45 -86 2 0 -4 18 -14 40 -18 40 -31 60 -31
46z"/>
<path d="M4507 2775 c-24 -50 -20 -58 4 -12 11 22 19 41 17 43 -3 2 -12 -12
-21 -31z"/>
<path d="M288 2753 c28 -2 76 -2 105 0 28 2 5 3 -53 3 -58 0 -81 -1 -52 -3z"/>
<path d="M983 2743 c9 -2 25 -2 35 0 9 3 1 5 -18 5 -19 0 -27 -2 -17 -5z"/>
<path d="M1068 2743 c17 -2 47 -2 65 0 17 2 3 4 -33 4 -36 0 -50 -2 -32 -4z"/>
<path d="M1233 2743 c37 -2 97 -2 135 0 37 2 6 3 -68 3 -74 0 -105 -1 -67 -3z"/>
<path d="M1878 2743 c28 -2 76 -2 105 0 28 2 5 3 -53 3 -58 0 -81 -1 -52 -3z"/>
<path d="M2170 2740 c0 -5 12 -10 26 -10 14 0 23 4 19 10 -3 6 -15 10 -26 10
-10 0 -19 -4 -19 -10z"/>
<path d="M2243 2733 c9 -2 25 -2 35 0 9 3 1 5 -18 5 -19 0 -27 -2 -17 -5z"/>
<path d="M2608 2733 c100 -2 264 -2 365 0 100 1 18 2 -183 2 -201 0 -283 -1
-182 -2z"/>
<path d="M3188 2733 c17 -2 47 -2 65 0 17 2 3 4 -33 4 -36 0 -50 -2 -32 -4z"/>
<path d="M3291 2736 c11 -10 119 -17 119 -7 0 7 -24 11 -62 11 -34 0 -59 -2
-57 -4z"/>
<path d="M3420 2730 c0 -5 14 -10 30 -10 17 0 30 5 30 10 0 6 -13 10 -30 10
-16 0 -30 -4 -30 -10z"/>
<path d="M3703 2723 c120 -2 314 -2 430 0 117 1 19 2 -218 2 -236 0 -332 -1
-212 -2z"/>
<path d="M4551 2726 c11 -10 119 -17 119 -7 0 7 -24 11 -62 11 -34 0 -59 -2
-57 -4z"/>
<path d="M4680 2720 c0 -5 14 -10 30 -10 17 0 30 5 30 10 0 6 -13 10 -30 10
-16 0 -30 -4 -30 -10z"/>
<path d="M532 2675 c-12 -25 -20 -45 -17 -45 7 0 47 81 43 86 -3 2 -14 -17
-26 -41z"/>
<path d="M603 2665 c0 -33 2 -45 4 -27 2 18 2 45 0 60 -2 15 -4 0 -4 -33z"/>
<path d="M732 2675 c-12 -25 -20 -45 -17 -45 7 0 47 81 43 86 -3 2 -14 -17
-26 -41z"/>
<path d="M4813 2713 c37 -2 97 -2 135 0 37 2 6 3 -68 3 -74 0 -105 -1 -67 -3z"/>
<path d="M860 2671 c-11 -23 -17 -41 -12 -41 10 0 45 70 38 77 -2 3 -14 -13
-26 -36z"/>
<path d="M1392 2665 c-12 -25 -20 -45 -17 -45 7 0 47 81 43 86 -3 2 -14 -17
-26 -41z"/>
<path d="M2120 2661 c-11 -23 -17 -41 -12 -41 10 0 45 70 38 77 -2 3 -14 -13
-26 -36z"/>
<path d="M2257 2665 c-24 -50 -20 -58 4 -12 11 22 19 41 17 43 -3 2 -12 -12
-21 -31z"/>
<path d="M2386 2659 c-23 -57 -15 -59 12 -4 12 25 18 45 13 45 -5 0 -16 -19
-25 -41z"/>
<path d="M2700 2696 c0 -11 40 -86 45 -86 3 0 -4 19 -16 43 -23 45 -29 54 -29
43z"/>
<path d="M3115 2657 c-21 -51 -18 -59 6 -14 11 22 18 41 15 44 -3 4 -13 -10
-21 -30z"/>
<path d="M3512 2645 c12 -24 23 -43 25 -41 7 6 -29 86 -38 86 -5 0 1 -20 13
-45z"/>
<path d="M3972 2645 l-22 -45 -102 -2 -103 -2 90 -3 c117 -5 128 -1 150 47 25
56 14 60 -13 5z"/>
<path d="M4450 2666 c-5 -15 -15 -36 -20 -47 -6 -10 -8 -19 -6 -19 9 0 48 82
42 87 -3 3 -10 -6 -16 -21z"/>
<path d="M4970 2639 c-12 -23 -19 -43 -16 -46 3 -3 10 6 16 21 5 15 15 36 20
47 6 10 8 19 6 19 -3 0 -15 -18 -26 -41z"/>
<path d="M267 2623 c18 -2 50 -2 70 0 21 2 7 4 -32 4 -38 0 -55 -2 -38 -4z"/>
<path d="M653 2623 c9 -2 25 -2 35 0 9 3 1 5 -18 5 -19 0 -27 -2 -17 -5z"/>
<path d="M910 2620 c0 -6 27 -10 62 -10 74 0 73 5 -4 14 -37 4 -58 2 -58 -4z"/>
<path d="M1218 2613 c29 -2 74 -2 100 0 26 2 2 3 -53 3 -55 0 -76 -1 -47 -3z"/>
<path d="M1857 2613 c18 -2 50 -2 70 0 21 2 7 4 -32 4 -38 0 -55 -2 -38 -4z"/>
<path d="M2160 2610 c0 -5 14 -10 31 -10 17 0 28 4 24 10 -3 6 -17 10 -31 10
-13 0 -24 -4 -24 -10z"/>
<path d="M2573 2603 c9 -2 25 -2 35 0 9 3 1 5 -18 5 -19 0 -27 -2 -17 -5z"/>
<path d="M2938 2603 c28 -2 76 -2 105 0 28 2 5 3 -53 3 -58 0 -81 -1 -52 -3z"/>
<path d="M3291 2606 c11 -10 119 -17 119 -7 0 7 -24 11 -62 11 -34 0 -59 -2
-57 -4z"/>
<path d="M3573 2593 c9 -2 25 -2 35 0 9 3 1 5 -18 5 -19 0 -27 -2 -17 -5z"/>
<path d="M4177 2593 c18 -2 50 -2 70 0 21 2 7 4 -32 4 -38 0 -55 -2 -38 -4z"/>
<path d="M4493 2593 c9 -2 25 -2 35 0 9 3 1 5 -18 5 -19 0 -27 -2 -17 -5z"/>
<path d="M4563 2593 c9 -2 25 -2 35 0 9 3 1 5 -18 5 -19 0 -27 -2 -17 -5z"/>
<path d="M462 2545 c-12 -25 -18 -45 -13 -45 10 0 46 78 39 85 -2 2 -14 -16
-26 -40z"/>
<path d="M4798 2583 c29 -2 74 -2 100 0 26 2 2 3 -53 3 -55 0 -76 -1 -47 -3z"/>
<path d="M665 2547 c-21 -51 -18 -59 6 -14 11 22 18 41 15 44 -3 4 -13 -10
-21 -30z"/>
<path d="M797 2545 c-10 -21 -16 -40 -13 -42 7 -7 38 56 34 68 -2 6 -11 -6
-21 -26z"/>
<path d="M1125 2540 c-25 -56 -14 -60 13 -5 12 25 18 45 13 45 -4 0 -16 -18
-26 -40z"/>
<path d="M2320 2529 c-12 -23 -20 -43 -18 -45 3 -2 14 17 26 41 27 56 20 60
-8 4z"/>
<path d="M2385 2530 c-25 -56 -14 -60 13 -5 12 25 18 45 13 45 -4 0 -16 -18
-26 -40z"/>
<path d="M2720 2529 c-12 -23 -20 -43 -18 -45 3 -2 14 17 26 41 27 56 20 60
-8 4z"/>
<path d="M2850 2530 c-12 -23 -19 -44 -16 -47 2 -3 14 14 26 37 12 23 19 44
16 47 -2 3 -14 -14 -26 -37z"/>
<path d="M3116 2531 c-9 -16 -16 -36 -16 -43 1 -7 10 4 21 25 11 22 18 41 15
44 -2 3 -12 -9 -20 -26z"/>
<path d="M3246 2524 c-9 -20 -14 -39 -12 -42 3 -3 13 12 21 33 21 48 14 56 -9
9z"/>
<path d="M3380 2520 c-11 -22 -18 -40 -15 -40 2 0 14 18 25 40 11 22 18 40 15
40 -2 0 -14 -18 -25 -40z"/>
<path d="M3510 2521 c-11 -23 -17 -41 -12 -41 10 0 45 70 38 77 -2 3 -14 -13
-26 -36z"/>
<path d="M3710 2519 c-12 -23 -20 -43 -18 -45 3 -2 14 17 26 41 27 56 20 60
-8 4z"/>
<path d="M3972 2515 c-12 -25 -18 -45 -13 -45 9 0 45 80 38 86 -2 2 -13 -17
-25 -41z"/>
<path d="M4110 2519 c-12 -23 -20 -43 -18 -45 3 -2 14 17 26 41 27 56 20 60
-8 4z"/>
<path d="M4240 2520 c-12 -23 -19 -44 -16 -47 2 -3 14 14 26 37 12 23 19 44
16 47 -2 3 -14 -14 -26 -37z"/>
<path d="M4372 2515 c-12 -25 -20 -45 -17 -45 7 0 47 81 43 86 -3 2 -14 -17
-26 -41z"/>
<path d="M4577 2553 c-9 -9 -9 -71 1 -76 4 -3 7 15 7 39 0 24 0 44 -1 44 0 0
-4 -3 -7 -7z"/>
<path d="M4904 2517 c1 -35 3 -42 10 -28 5 11 4 31 -1 48 -9 25 -10 23 -9 -20z"/>
<path d="M2116 2495 c-3 -8 -1 -15 4 -15 6 0 10 7 10 15 0 8 -2 15 -4 15 -2 0
-6 -7 -10 -15z"/>
<path d="M253 2493 c9 -2 25 -2 35 0 9 3 1 5 -18 5 -19 0 -27 -2 -17 -5z"/>
<path d="M910 2490 c0 -5 12 -10 26 -10 14 0 23 4 19 10 -3 6 -15 10 -26 10
-10 0 -19 -4 -19 -10z"/>
<path d="M1218 2483 c29 -2 74 -2 100 0 26 2 2 3 -53 3 -55 0 -76 -1 -47 -3z"/>
<path d="M1843 2483 c9 -2 25 -2 35 0 9 3 1 5 -18 5 -19 0 -27 -2 -17 -5z"/>
<path d="M2043 2483 c9 -2 25 -2 35 0 9 3 1 5 -18 5 -19 0 -27 -2 -17 -5z"/>
<path d="M2243 2473 c9 -2 25 -2 35 0 9 3 1 5 -18 5 -19 0 -27 -2 -17 -5z"/>
<path d="M2587 2473 c18 -2 50 -2 70 0 21 2 7 4 -32 4 -38 0 -55 -2 -38 -4z"/>
<path d="M2917 2473 c18 -2 50 -2 70 0 21 2 7 4 -32 4 -38 0 -55 -2 -38 -4z"/>
<path d="M3303 2473 c9 -2 25 -2 35 0 9 3 1 5 -18 5 -19 0 -27 -2 -17 -5z"/>
<path d="M4163 2463 c9 -2 25 -2 35 0 9 3 1 5 -18 5 -19 0 -27 -2 -17 -5z"/>
<path d="M4493 2463 c9 -2 25 -2 35 0 9 3 1 5 -18 5 -19 0 -27 -2 -17 -5z"/>
<path d="M4615 2460 c3 -5 15 -10 25 -10 10 0 22 5 25 10 4 6 -7 10 -25 10
-18 0 -29 -4 -25 -10z"/>
<path d="M4680 2460 c0 -5 14 -10 31 -10 17 0 28 4 24 10 -3 6 -17 10 -31 10
-13 0 -24 -4 -24 -10z"/>
<path d="M270 2419 c-12 -23 -20 -43 -18 -45 3 -2 14 17 26 41 27 56 20 60 -8
4z"/>
<path d="M400 2419 c-12 -23 -19 -43 -17 -46 6 -5 21 21 37 61 15 40 3 31 -20
-15z"/>
<path d="M1259 2437 c-7 -15 -7 -30 1 -47 10 -24 10 -25 6 -1 -3 13 -1 34 4
47 12 30 3 31 -11 1z"/>
<path d="M597 2415 c-24 -50 -20 -58 4 -12 11 22 19 41 17 43 -3 2 -12 -12
-21 -31z"/>
<path d="M726 2414 c-24 -51 -12 -55 14 -5 11 23 17 41 12 41 -5 0 -16 -16
-26 -36z"/>
<path d="M930 2410 c-11 -22 -18 -40 -15 -40 2 0 14 18 25 40 11 22 18 40 15
40 -2 0 -14 -18 -25 -40z"/>
<path d="M1060 2411 c-11 -23 -17 -41 -12 -41 10 0 45 70 38 77 -2 3 -14 -13
-26 -36z"/>
<path d="M1395 2410 c0 -34 1 -38 9 -21 5 13 5 29 0 42 -8 17 -9 13 -9 -21z"/>
<path d="M1857 2405 c-24 -50 -20 -58 4 -12 11 22 19 41 17 43 -3 2 -12 -12
-21 -31z"/>
<path d="M1986 2404 c-24 -51 -12 -55 14 -5 11 23 17 41 12 41 -5 0 -16 -16
-26 -36z"/>
<path d="M2263 2390 c0 -30 2 -43 4 -27 2 15 2 39 0 55 -2 15 -4 2 -4 -28z"/>
<path d="M2371 2435 c0 -5 8 -26 19 -45 11 -19 19 -30 19 -25 0 6 -8 26 -19
45 -11 19 -19 31 -19 25z"/>
<path d="M2654 2403 c-9 -21 -19 -41 -21 -45 -2 -5 -2 -8 1 -8 8 0 48 81 43
87 -3 2 -13 -13 -23 -34z"/>
<path d="M2704 2425 c5 -11 13 -32 18 -47 5 -16 14 -28 19 -28 5 0 0 19 -12
43 -24 46 -36 63 -25 32z"/>
<path d="M2982 2395 c-12 -25 -20 -45 -17 -45 7 0 47 81 43 86 -3 2 -14 -17
-26 -41z"/>
<path d="M3101 2425 c0 -5 8 -26 19 -45 11 -19 19 -30 19 -25 0 6 -8 26 -19
45 -11 19 -19 31 -19 25z"/>
<path d="M3447 2395 c-10 -21 -16 -40 -13 -42 7 -7 38 56 34 68 -2 6 -11 -6
-21 -26z"/>
<path d="M3510 2391 c-11 -23 -17 -41 -12 -41 10 0 45 70 38 77 -2 3 -14 -13
-26 -36z"/>
<path d="M3647 2395 c-24 -50 -20 -58 4 -12 11 22 19 41 17 43 -3 2 -12 -12
-21 -31z"/>
<path d="M3972 2385 c12 -24 23 -43 25 -41 5 5 -32 86 -39 86 -4 0 2 -20 14
-45z"/>
<path d="M4307 2385 c-24 -50 -20 -58 4 -12 11 22 19 41 17 43 -3 2 -12 -12
-21 -31z"/>
<path d="M4506 2391 c-9 -16 -16 -36 -16 -43 1 -7 10 4 21 25 11 22 18 41 15
44 -2 3 -12 -9 -20 -26z"/>
<path d="M4836 2384 c-24 -51 -12 -55 14 -5 11 23 17 41 12 41 -5 0 -16 -16
-26 -36z"/>
<path d="M318 2363 c12 -2 30 -2 40 0 9 3 -1 5 -23 4 -22 0 -30 -2 -17 -4z"/>
<path d="M653 2363 c9 -2 25 -2 35 0 9 3 1 5 -18 5 -19 0 -27 -2 -17 -5z"/>
<path d="M4170 2348 c0 -19 2 -20 10 -8 13 19 13 30 0 30 -5 0 -10 -10 -10
-22z"/>
<path d="M983 2353 c9 -2 25 -2 35 0 9 3 1 5 -18 5 -19 0 -27 -2 -17 -5z"/>
<path d="M1183 2353 c9 -2 25 -2 35 0 9 3 1 5 -18 5 -19 0 -27 -2 -17 -5z"/>
<path d="M1313 2353 c9 -2 25 -2 35 0 9 3 1 5 -18 5 -19 0 -27 -2 -17 -5z"/>
<path d="M1913 2353 c9 -2 25 -2 35 0 9 3 1 5 -18 5 -19 0 -27 -2 -17 -5z"/>
<path d="M2160 2350 c0 -5 14 -10 31 -10 17 0 28 4 24 10 -3 6 -17 10 -31 10
-13 0 -24 -4 -24 -10z"/>
<path d="M2478 2343 c29 -2 74 -2 100 0 26 2 2 3 -53 3 -55 0 -76 -1 -47 -3z"/>
<path d="M2808 2343 c29 -2 74 -2 100 0 26 2 2 3 -53 3 -55 0 -76 -1 -47 -3z"/>
<path d="M3188 2343 c17 -2 47 -2 65 0 17 2 3 4 -33 4 -36 0 -50 -2 -32 -4z"/>
<path d="M3291 2346 c11 -10 119 -17 119 -7 0 7 -24 11 -62 11 -34 0 -59 -2
-57 -4z"/>
<path d="M3563 2333 c9 -2 25 -2 35 0 9 3 1 5 -18 5 -19 0 -27 -2 -17 -5z"/>
<path d="M4037 2333 c18 -2 50 -2 70 0 21 2 7 4 -32 4 -38 0 -55 -2 -38 -4z"/>
<path d="M4228 2333 c12 -2 30 -2 40 0 9 3 -1 5 -23 4 -22 0 -30 -2 -17 -4z"/>
<path d="M4551 2336 c11 -10 109 -16 109 -6 0 6 -24 10 -57 10 -31 0 -54 -2
-52 -4z"/>
<path d="M4680 2331 c0 -7 24 -11 62 -11 74 0 73 5 -4 14 -39 5 -58 4 -58 -3z"/>
</g>
</svg>
